<?xml version="1.0" encoding="utf-8"?>
<!-- Generator: Adobe Illustrator 19.2.0, SVG Export Plug-In . SVG Version: 6.00 Build 0)  -->
<svg version="1.1" id="Layer_1" xmlns="http://www.w3.org/2000/svg" xmlns:xlink="http://www.w3.org/1999/xlink" x="0px" y="0px"
	 viewBox="0 0 333.6 295" style="enable-background:new 0 0 333.6 295;" xml:space="preserve">
<style type="text/css">
	.st0{fill:#CC3333;}
	.st1{fill:#FFFFFF;}
	.st2{fill:none;stroke:#CC3333;stroke-width:10;stroke-miterlimit:10;}
	.st3{fill:#222222;}
	.st4{fill:#FF7373;}
</style>
<path class="st1" d="M148.4,6.8c9.1-3.4,16,0.7,25.3,1.8c26.3,3.1,39.6,17.6,49.2,28.5c12.5,14.1,19.1,14,28.2,30.8
	c6.7,12.3,4,29.5,19,36.4c7.2,3.3,12.6,0.4,19.4,2.5c8.1,2.6,13.3,9.2,18.1,15.8c10.3,5.6,17.7,17.6,24.4,24.8
	c4.5,4.9-0.9,19.8-7.5,16.6c-3.9-3.7-1.7-9.9-5.1-13.9c-4.9-2.9-6-6.9-9.4-11.4c-14.8-20.2-30.6-5.5-49.9-4.9
	c0,3.3,15.1,6.6,17.9,10.7c5.3,7.9,8.5,17.4,11.6,26.2c2.8,7.8,13,20.1,12.8,23.2c11.3,6.4,4,23.2-6,17.6
	c-2-11.3-10.7-24.6-15.9-34.7c-5.1-10.1-9.1-14.9-20.9-14.2c-8.2,0.4-19.9-1.4-27.3-5.1c-4.1-2-6-5.7-10-7.8
	c-5.3-2.8-7.8,2.7-13.9,4.6c-7.1-4.9-18.4,9.6-27.7,11.9c-12.9,7.2-19.8-0.4-17.6,18.4c1.7,14.6-0.2,25.6-3,39.9
	c-3,15.2-3.9,32-2.2,47.2c0.6,5.8-2.6,7.6-0.7,13.4c2.2,6.7,2.3,9.4-5.3,9.9c-18.4,1-9.8-8.7-7.9-21.7c1.9-12.7-0.8-29.7-0.4-42.2
	c0.3-7.6,0.4-23.8-5.8-30.1c-6.1,3.1-3.3,31.7-5.1,38.2c-1.4,5.2-1.7,11.7-1.6,17.3c0.2,10.4,0.7,12.8-0.7,16.3
	c-1.2,3.3,0.2,5.5,0.4,8.5c0.4,7-11.8,5.7-15.8,5c-4.8-1,3.9-23.6,4.8-30.8c3-24.1-8.6-48.2-5.2-71.9c1.3-9.5-11-17.9-17.4-22.6
	c-4.6-3.3-8.9-7.6-12.6-11.9c-4.2-4.9-50.7-5-62.7,2c-3.9,2.2-7.7,4.4-9.7-0.6c-2.9-7.2-5.9-4.7-11.5-8.8
	c-2.1-16.2,2-13.7,16.4-22.1c9.8-5.7,21-13.6,30.7-18.6c13.8-7.1,21.9-8.4,24.7-9.4c3.6-1.3,35.6-12.3,36-10.9
	C114,86,83.5,93.2,85.4,97.2c6,0,35.4-10.2,36.7-8.2c4.5,6.2-23.6,12.1-26,14.5c-3.7,3.8,2.8,1.5,6.8,1.4c9.4-0.3,11.9-3.1,21.3-4
	c14.9-1.4,32.9-12.3,41.5-22.1c10.6-12.2,23.9-26,39.9-30.3c20.7-5.7-17-40.8-37.4-25.6c-12.1,8.9-13.7,0.6-24.9-2.1
	C131.5,17.5,146.2,11.8,148.4,6.8"/>
</svg>
